<svg class="svg-icon" style="width: 1em; height: 1em;vertical-align: middle;fill: currentColor;overflow: hidden;" viewBox="0 0 1024 1024" version="1.1" xmlns="http://www.w3.org/2000/svg"><path d="M787.458679 784.742824c-72.835865 72.835865-169.657005 112.974028-272.742824 112.974028-102.988606 0-199.906959-40.138162-272.742825-112.974028-72.835865-72.934103-112.974028-169.754219-112.974027-272.742824s40.138162-199.906959 112.974027-272.742824c72.934103-72.835865 169.754219-112.974028 272.742825-112.974028 81.45108 0 159.084205 25.061792 223.99047 71.562872l-77.534887 101.520162c-41.606607-28.78151-92.122117-45.620014-146.45456-45.620014-142.53939 0-258.156618 115.617228-258.156618 258.253832 0 140.580782 112.288412 254.92604 252.086366 258.156618 9.78997 26.13831 34.95 44.837184 64.514339 44.837184 37.984103 0 68.822458-30.837332 68.822458-68.822458 0-3.035126-0.195451-6.069229-0.587378-9.006118 11.258415-6.362918 22.026666-13.607926 32.208563-21.537526l-48.067762-15.761985c-12.041244-17.132192-31.914874-28.29237-54.333466-28.29237-33.872458 0-61.871139 25.355481-65.885569 58.151422-54.627155-2.349511-105.631806-24.669866-144.595213-63.633273-41.21468-41.21468-63.829747-95.940073-63.829747-154.091494 0-58.249659 22.712281-112.974028 63.829747-154.091494 41.117466-41.21468 95.841835-63.829747 154.091494-63.829747 44.249807 0 86.542029 13.118785 122.372072 37.593199l-74.891688 98.093109c-15.174608-9.691733-33.089629-15.271822-52.473095-15.271821-53.843302 0-97.603969 43.662429-97.603968 97.603968s43.662429 97.603969 97.603968 97.603969c53.843302 0 97.603969-43.662429 97.603969-97.603969 0-25.844621-9.985422-49.242518-26.431999-66.668399l75.577302-98.876961c4.209882 3.622504 8.41874 7.440459 12.334933 11.453866 28.879748 28.879748 48.556902 64.318888 57.857732 102.988606l39.452548-7.831362c-12.824073-54.920844-43.173289-103.184057-84.87711-138.329509l77.43665-101.421924c9.985422 8.125051 19.481703 16.838503 28.78151 26.041096 52.668547 52.668547 88.304162 117.966739 103.966887 189.040471l39.452547-7.831363C888.97884 229.27073 718.539007 86.046748 514.715855 86.046748c-235.247862 0-425.953252 190.704366-425.953252 425.953252s190.704366 425.953252 425.953252 425.953252c136.665613 0 258.253832-64.318888 336.180645-164.370605l-40.920991-13.412474c-7.14677 8.419763-14.58723 16.643052-22.51683 24.572651z" fill="" /><path d="M677.813466 684.495656v22.320355h117.281124v-22.320355h-45.718251V497.902934l-72.737628 21.145599v23.788799l46.991244-13.607926v155.26625h-45.816489zM893.873314 498.881215c-22.712281 0-40.039925 9.299807-51.983955 27.803229-11.94403 18.502399-17.915022 45.816488-17.915022 81.94022 0 33.089629 5.678326 58.346873 17.132193 75.674517 11.355629 17.327644 27.509541 26.041096 48.263213 26.041096 22.026666 0 39.061644-9.104355 51.29834-27.411303 12.237719-18.306948 18.306948-44.641733 18.306948-79.199806-0.097214-69.897953-21.830191-104.847953-65.101717-104.847953z m-2.251274 190.019774c-27.509541 0-41.312918-27.117614-41.312918-81.45108 0-58.053184 13.998829-87.031169 42.095747-87.031169 26.628474 0 39.844473 28.586059 39.844474 85.660962 0.098237 55.214533-13.509688 82.821287-40.627303 82.821287z" fill="" /></svg>